<svg width="48" height="48" viewBox="0 0 48 48" fill="none" xmlns="http://www.w3.org/2000/svg">
<path d="M19.0018 24C19.0018 21.2387 21.2397 18.9996 24.001 18.9996C26.7623 18.9996 29.0014 21.2387 29.0014 24C29.0014 26.7613 26.7623 29.0004 24.001 29.0004C21.2397 29.0004 19.0018 26.7613 19.0018 24ZM16.2987 24C16.2987 28.254 19.747 31.7023 24.001 31.7023C28.255 31.7023 31.7033 28.254 31.7033 24C31.7033 19.746 28.255 16.2977 24.001 16.2977C19.747 16.2977 16.2987 19.746 16.2987 24ZM30.2082 15.9923C30.2081 16.3483 30.3135 16.6963 30.5112 16.9924C30.7088 17.2885 30.9899 17.5193 31.3187 17.6557C31.6476 17.7921 32.0095 17.8279 32.3587 17.7586C32.7079 17.6892 33.0287 17.5179 33.2805 17.2663C33.5323 17.0147 33.7039 16.694 33.7735 16.3449C33.8431 15.9957 33.8076 15.6338 33.6715 15.3048C33.5354 14.9759 33.3048 14.6947 33.0088 14.4968C32.7129 14.2989 32.3649 14.1931 32.0089 14.193H32.0082C31.531 14.1932 31.0734 14.3828 30.7359 14.7202C30.3984 15.0576 30.2086 15.5151 30.2082 15.9923ZM17.941 36.2096C16.4785 36.143 15.6837 35.8994 15.1554 35.6936C14.4551 35.421 13.9554 35.0963 13.4301 34.5716C12.9047 34.047 12.5795 33.5478 12.3081 32.8475C12.1021 32.3195 11.8585 31.5244 11.7921 30.0619C11.7193 28.4808 11.7048 28.0058 11.7048 24.0001C11.7048 19.9944 11.7205 19.5208 11.7921 17.9383C11.8587 16.4759 12.1041 15.6823 12.3081 15.1528C12.5807 14.4524 12.9054 13.9528 13.4301 13.4274C13.9547 12.902 14.4539 12.5768 15.1554 12.3054C15.6834 12.0995 16.4785 11.8559 17.941 11.7894C19.5221 11.7167 19.9971 11.7022 24.001 11.7022C28.0049 11.7022 28.4803 11.7179 30.0628 11.7894C31.5252 11.856 32.3188 12.1014 32.8483 12.3054C33.5487 12.5768 34.0483 12.9028 34.5737 13.4274C35.0991 13.952 35.4231 14.4524 35.6957 15.1528C35.9016 15.6808 36.1452 16.4759 36.2117 17.9383C36.2844 19.5208 36.2989 19.9944 36.2989 24.0001C36.2989 28.0058 36.2844 28.4795 36.2117 30.0619C36.1451 31.5244 35.9003 32.3192 35.6957 32.8475C35.4231 33.5478 35.0983 34.0475 34.5737 34.5716C34.0491 35.0958 33.5487 35.421 32.8483 35.6936C32.3203 35.8996 31.5252 36.1432 30.0628 36.2096C28.4817 36.2824 28.0067 36.2969 24.001 36.2969C19.9953 36.2969 19.5216 36.2824 17.941 36.2096ZM17.8168 9.09084C16.2199 9.16356 15.1288 9.41676 14.1759 9.78756C13.189 10.1705 12.3535 10.6842 11.5187 11.5177C10.6839 12.3512 10.1715 13.188 9.78854 14.1749C9.41774 15.1284 9.16454 16.219 9.09182 17.8158C9.0179 19.4152 9.00098 19.9265 9.00098 24C9.00098 28.0735 9.0179 28.5848 9.09182 30.1842C9.16454 31.7812 9.41774 32.8716 9.78854 33.8251C10.1715 34.8114 10.684 35.6491 11.5187 36.4823C12.3534 37.3154 13.189 37.8284 14.1759 38.2124C15.1306 38.5832 16.2199 38.8364 17.8168 38.9092C19.417 38.9819 19.9275 39 24.001 39C28.0745 39 28.5858 38.9831 30.1852 38.9092C31.7821 38.8364 32.8726 38.5832 33.8261 38.2124C34.8124 37.8284 35.6484 37.3158 36.4833 36.4823C37.3181 35.6488 37.8294 34.8114 38.2134 33.8251C38.5842 32.8716 38.8386 31.781 38.9101 30.1842C38.9829 28.5836 38.9998 28.0735 38.9998 24C38.9998 19.9265 38.9829 19.4152 38.9101 17.8158C38.8374 16.2188 38.5842 15.1278 38.2134 14.1749C37.8294 13.1886 37.3168 12.3526 36.4833 11.5177C35.6497 10.6829 34.8124 10.1705 33.8273 9.78756C32.8726 9.41676 31.782 9.16236 30.1864 9.09084C28.587 9.01812 28.0757 9 24.0022 9C19.9287 9 19.417 9.01692 17.8168 9.09084Z" fill="black"/>
</svg>
