<svg width="48" height="48" viewBox="0 0 48 48" fill="none" xmlns="http://www.w3.org/2000/svg">
<path d="M23.9996 12.8402C25.8852 12.8402 27.419 14.374 27.419 16.2596C27.419 18.1436 25.8848 19.6774 23.9996 19.6774C22.1151 19.6774 20.5809 18.1436 20.5809 16.2596C20.5805 14.3736 22.1155 12.8402 23.9996 12.8402ZM23.9996 24.5152C28.5543 24.5152 32.2584 20.8124 32.2584 16.2596C32.2584 11.7044 28.5547 8 23.9996 8C19.4452 8 15.7408 11.7048 15.7408 16.2596C15.7408 20.8124 19.4452 24.5152 23.9996 24.5152ZM27.3407 31.2517C29.0397 30.8648 30.661 30.1934 32.1362 29.266C32.6793 28.9244 33.0644 28.3809 33.2068 27.7553C33.3492 27.1297 33.2373 26.4731 32.8956 25.93C32.7266 25.6609 32.5062 25.4276 32.247 25.2437C31.9878 25.0598 31.6949 24.9287 31.3851 24.8581C31.0752 24.7875 30.7544 24.7786 30.4411 24.832C30.1278 24.8855 29.8281 25.0001 29.5592 25.1695C26.1757 27.2966 21.821 27.295 18.4403 25.1695C18.1714 25.0001 17.8718 24.8854 17.5585 24.8319C17.2452 24.7785 16.9245 24.7873 16.6146 24.858C16.3048 24.9286 16.0119 25.0597 15.7527 25.2436C15.4936 25.4276 15.2732 25.6608 15.1043 25.93C14.7625 26.473 14.6504 27.1294 14.7926 27.755C14.9348 28.3807 15.3196 28.9242 15.8625 29.266C17.3376 30.1931 18.9586 30.8644 20.6572 31.2517L16.0404 35.8693C15.5867 36.3232 15.3319 36.9387 15.332 37.5804C15.3321 38.2222 15.5871 38.8376 16.041 39.2913C16.4949 39.745 17.1104 39.9998 17.7521 39.9997C18.3939 39.9996 19.0093 39.7446 19.463 39.2907L23.9988 34.7541L28.5373 39.2911C28.7617 39.5158 29.0282 39.6941 29.3216 39.8157C29.615 39.9374 29.9294 40 30.247 40C30.5646 40 30.8791 39.9374 31.1725 39.8157C31.4658 39.6941 31.7323 39.5158 31.9567 39.2911C32.1818 39.0667 32.3604 38.8001 32.4822 38.5066C32.6041 38.2131 32.6668 37.8984 32.6668 37.5806C32.6668 37.2628 32.6041 36.9481 32.4822 36.6546C32.3604 36.361 32.1818 36.0945 31.9567 35.8701L27.3407 31.2517Z" fill="black"/>
</svg>
